<svg width="114" height="25" viewBox="0 0 114 25" fill="none" xmlns="http://www.w3.org/2000/svg">
<path d="M12.6315 14.7095H5.51152L3.80165 19.7442H0.785889L7.52987 1.11719H10.6631L17.4071 19.7442H14.3399L12.6315 14.7095ZM6.24893 12.3863H11.8927L9.11052 4.21536H9.03266L6.24893 12.3863Z" fill="white"/>
<path d="M31.9718 12.9547C31.9718 17.1749 29.7067 19.8863 26.2884 19.8863C25.4225 19.9315 24.5614 19.7326 23.8035 19.3124C23.0457 18.8921 22.4219 18.2676 22.0035 17.5103H21.9388V24.2369H19.1434V6.16364H21.8492V8.42243H21.9006C22.3383 7.66873 22.9727 7.04745 23.7363 6.62468C24.4998 6.20191 25.3641 5.99347 26.237 6.02155C29.6934 6.02156 31.9718 8.74616 31.9718 12.9547ZM29.0985 12.9547C29.0985 10.2052 27.6736 8.39753 25.4996 8.39753C23.3637 8.39753 21.9271 10.2432 21.9271 12.9547C21.9271 15.691 23.3637 17.5235 25.4996 17.5235C27.6736 17.5235 29.0985 15.7291 29.0985 12.9547Z" fill="white"/>
<path d="M46.9611 12.9547C46.9611 17.1749 44.6959 19.8863 41.2777 19.8863C40.4118 19.9315 39.5506 19.7325 38.7928 19.3123C38.035 18.8921 37.4112 18.2676 36.9927 17.5103H36.9281V24.2369H34.1326V6.16363H36.8384V8.42242H36.8898C37.3275 7.66872 37.9619 7.04744 38.7255 6.62467C39.489 6.2019 40.3533 5.99347 41.2262 6.02155C44.6827 6.02155 46.9611 8.74615 46.9611 12.9547ZM44.0878 12.9547C44.0878 10.2052 42.6629 8.39752 40.4888 8.39752C38.353 8.39752 36.9163 10.2432 36.9163 12.9547C36.9163 15.691 38.353 17.5235 40.4888 17.5235C42.6629 17.5235 44.0878 15.7291 44.0878 12.9547H44.0878Z" fill="white"/>
<path d="M56.8677 14.5543C57.0748 16.4015 58.8743 17.6143 61.3333 17.6143C63.6895 17.6143 65.3847 16.4014 65.3847 14.7359C65.3847 13.29 64.3623 12.4243 61.9414 11.8311L59.5206 11.2495C56.0906 10.4233 54.4982 8.82373 54.4982 6.22803C54.4982 3.01416 57.3069 0.806641 61.2951 0.806641C65.2422 0.806641 67.948 3.01416 68.0391 6.22803H65.2172C65.0483 4.36914 63.5073 3.24708 61.2554 3.24708C59.0035 3.24708 57.4626 4.38234 57.4626 6.03468C57.4626 7.35157 58.4468 8.12648 60.8544 8.71968L62.9124 9.22359C66.7449 10.1274 68.3372 11.6626 68.3372 14.3872C68.3372 17.872 65.5536 20.0546 61.1261 20.0546C56.9837 20.0546 54.1868 17.9233 54.0061 14.5541L56.8677 14.5543Z" fill="white"/>
<path d="M74.3703 2.94971V6.16358H76.96V8.3711H74.3703V15.8579C74.3703 17.021 74.8888 17.563 76.0272 17.563C76.3347 17.5576 76.6416 17.5361 76.9468 17.4985V19.6928C76.435 19.7882 75.9147 19.8314 75.3941 19.8217C72.6369 19.8217 71.5616 18.789 71.5616 16.1552V8.3711H69.5815V6.16358H71.5616V2.94971H74.3703Z" fill="white"/>
<path d="M78.4599 12.9546C78.4599 8.68164 80.9836 5.99658 84.9189 5.99658C88.8674 5.99658 91.3794 8.68158 91.3794 12.9546C91.3794 17.2393 88.8807 19.9126 84.9189 19.9126C80.9585 19.9126 78.4599 17.2392 78.4599 12.9546ZM88.531 12.9546C88.531 10.0234 87.184 8.29346 84.9189 8.29346C82.6538 8.29346 81.3082 10.0366 81.3082 12.9546C81.3082 15.8975 82.6538 17.6143 84.9189 17.6143C87.184 17.6143 88.531 15.8975 88.531 12.9546H88.531Z" fill="white"/>
<path d="M93.6842 6.16352H96.3503V8.47501H96.415C96.5954 7.75308 97.0195 7.11509 97.616 6.66826C98.2126 6.22143 98.9452 5.99301 99.6908 6.0214C100.013 6.02028 100.334 6.05517 100.649 6.12542V8.73283C100.242 8.60891 99.8176 8.55201 99.3925 8.56438C98.9864 8.54795 98.5815 8.61936 98.2057 8.77369C97.8299 8.92802 97.492 9.16162 97.2153 9.45845C96.9386 9.75529 96.7295 10.1083 96.6025 10.4933C96.4755 10.8783 96.4336 11.2862 96.4796 11.6889V19.7441H93.6841L93.6842 6.16352Z" fill="white"/>
<path d="M113.537 15.7554C113.161 18.2207 110.753 19.9126 107.673 19.9126C103.711 19.9126 101.252 17.2656 101.252 13.019C101.252 8.75928 103.724 5.99658 107.555 5.99658C111.323 5.99658 113.693 8.57763 113.693 12.6953V13.6504H104.074V13.8188C104.03 14.3186 104.092 14.8221 104.258 15.2959C104.424 15.7697 104.689 16.2028 105.035 16.5667C105.382 16.9305 105.802 17.2166 106.268 17.4061C106.734 17.5955 107.235 17.684 107.738 17.6655C108.398 17.7272 109.061 17.5747 109.628 17.2305C110.194 16.8863 110.635 16.369 110.883 15.7554L113.537 15.7554ZM104.087 11.7021H110.896C110.921 11.2528 110.853 10.803 110.695 10.3812C110.538 9.95941 110.295 9.5746 109.981 9.25095C109.667 8.9273 109.29 8.6718 108.872 8.50047C108.455 8.32915 108.007 8.2457 107.555 8.25537C107.1 8.25266 106.649 8.33988 106.228 8.51199C105.807 8.68411 105.424 8.93771 105.101 9.25816C104.779 9.57861 104.523 9.95956 104.349 10.379C104.175 10.7985 104.086 11.2482 104.087 11.7022V11.7021Z" fill="white"/>
</svg>
