<svg width="105" height="11" viewBox="0 0 105 11" fill="none" xmlns="http://www.w3.org/2000/svg">
<path d="M3.8986 1.09658C4.48466 1.05464 5.07275 1.14293 5.62045 1.35508C6.16815 1.56723 6.66181 1.89795 7.06582 2.32339C7.46983 2.74883 7.77411 3.25838 7.95673 3.81528C8.13935 4.37219 8.19574 4.96257 8.12184 5.54384C8.12184 8.40322 6.5721 10.0468 3.8986 10.0468H0.656616V1.09658H3.8986ZM2.05064 8.78108H3.74288C4.16166 8.80604 4.58075 8.73757 4.96965 8.58065C5.35855 8.42373 5.70746 8.18231 5.991 7.87396C6.27453 7.56561 6.48554 7.1981 6.60868 6.79817C6.73182 6.39824 6.76398 5.97597 6.70282 5.56208C6.75954 5.14983 6.72412 4.73017 6.59909 4.33318C6.47407 3.93618 6.26253 3.57168 5.97964 3.26578C5.69675 2.95989 5.34952 2.72018 4.96281 2.56382C4.57611 2.40747 4.15952 2.33834 3.74288 2.3614H2.05064V8.78108Z" fill="white"/>
<path d="M9.69657 6.66668C9.65398 6.2228 9.70491 5.77495 9.84606 5.35184C9.98722 4.92874 10.2155 4.53973 10.5162 4.20975C10.817 3.87978 11.1836 3.61613 11.5925 3.43572C12.0014 3.2553 12.4437 3.16211 12.8908 3.16211C13.338 3.16211 13.7802 3.2553 14.1891 3.43572C14.598 3.61613 14.9646 3.87978 15.2654 4.20975C15.5661 4.53973 15.7944 4.92874 15.9356 5.35184C16.0767 5.77495 16.1276 6.2228 16.0851 6.66668C16.1284 7.11101 16.0781 7.55948 15.9373 7.98327C15.7966 8.40706 15.5684 8.79678 15.2676 9.1274C14.9668 9.45803 14.5999 9.72223 14.1906 9.90303C13.7812 10.0838 13.3385 10.1772 12.8908 10.1772C12.4431 10.1772 12.0004 10.0838 11.5911 9.90303C11.1817 9.72223 10.8149 9.45803 10.514 9.1274C10.2132 8.79678 9.98505 8.40706 9.84427 7.98327C9.70349 7.55948 9.65318 7.11101 9.69657 6.66668ZM14.7101 6.66668C14.7101 5.20257 14.0505 4.34637 12.893 4.34637C11.7311 4.34637 11.0774 5.20257 11.0774 6.66669C11.0774 8.14253 11.7311 8.99213 12.893 8.99213C14.0506 8.99211 14.7101 8.13665 14.7101 6.66668H14.7101Z" fill="white"/>
<path d="M24.5771 10.0469H23.1904L21.7905 5.07226H21.6847L20.2907 10.0469H18.9172L17.0502 3.29248H18.406L19.6194 8.44648H19.7193L21.1118 3.29248H22.3942L23.7868 8.44648H23.8926L25.1 3.29248H26.4368L24.5771 10.0469Z" fill="white"/>
<path d="M28.0071 3.2923H29.2939V4.3653H29.3938C29.5632 3.97992 29.849 3.65686 30.2114 3.44115C30.5737 3.22544 30.9945 3.12783 31.4151 3.16192C31.7446 3.13721 32.0756 3.18677 32.3833 3.30691C32.6911 3.42705 32.9678 3.61471 33.1929 3.85598C33.4181 4.09724 33.5859 4.38593 33.684 4.70066C33.7821 5.01539 33.8079 5.3481 33.7595 5.67412V10.0466H32.4228V6.00886C32.4228 4.92342 31.9498 4.38361 30.9612 4.38361C30.7374 4.37322 30.514 4.4112 30.3064 4.49494C30.0987 4.57869 29.9116 4.70622 29.758 4.8688C29.6044 5.03138 29.4879 5.22515 29.4164 5.43685C29.3449 5.64854 29.3201 5.87315 29.3438 6.09528V10.0467H28.0071L28.0071 3.2923Z" fill="white"/>
<path d="M35.8895 0.655762H37.2263V10.0469H35.8895V0.655762Z" fill="white"/>
<path d="M39.0845 6.6668C39.0419 6.2229 39.0929 5.77502 39.2341 5.3519C39.3753 4.92878 39.6036 4.53975 39.9043 4.20977C40.2051 3.87979 40.5718 3.61614 40.9807 3.43572C41.3897 3.25531 41.8319 3.16211 42.2791 3.16211C42.7263 3.16211 43.1685 3.25531 43.5775 3.43572C43.9864 3.61614 44.353 3.87979 44.6538 4.20977C44.9546 4.53975 45.1829 4.92878 45.3241 5.3519C45.4653 5.77502 45.5162 6.2229 45.4737 6.6668C45.517 7.11115 45.4667 7.55963 45.3258 7.98342C45.185 8.4072 44.9568 8.79692 44.656 9.12753C44.3551 9.45815 43.9882 9.72234 43.5789 9.90313C43.1695 10.0839 42.7268 10.1773 42.2791 10.1773C41.8314 10.1773 41.3886 10.0839 40.9793 9.90313C40.5699 9.72234 40.203 9.45815 39.9022 9.12753C39.6013 8.79692 39.3731 8.4072 39.2323 7.98342C39.0915 7.55963 39.0411 7.11115 39.0845 6.6668ZM44.098 6.6668C44.098 5.2027 43.4384 4.3465 42.2809 4.3465C41.119 4.3465 40.4653 5.2027 40.4653 6.66682C40.4653 8.14265 41.119 8.99225 42.2809 8.99225C43.4384 8.99224 44.098 8.13677 44.098 6.6668H44.098Z" fill="white"/>
<path d="M46.881 8.13671C46.881 6.92089 47.7888 6.21996 49.4002 6.12035L51.235 6.01489V5.43188C51.235 4.7185 50.762 4.31567 49.8483 4.31567C49.1021 4.31567 48.585 4.58886 48.4366 5.0664H47.1425C47.2791 3.90624 48.3734 3.16211 49.91 3.16211C51.6081 3.16211 52.5658 4.00511 52.5658 5.43188V10.0469H51.279V9.09765H51.1733C50.9586 9.43814 50.6572 9.71572 50.2997 9.90203C49.9423 10.0883 49.5417 10.1767 49.1388 10.1582C48.8544 10.1876 48.567 10.1574 48.2951 10.0693C48.0232 9.9813 47.7728 9.83741 47.5601 9.64696C47.3474 9.4565 47.1771 9.22371 47.0601 8.96359C46.9431 8.70347 46.8821 8.42179 46.881 8.13671ZM51.235 7.55955V6.99486L49.5809 7.10033C48.6481 7.16258 48.2251 7.47899 48.2251 8.07444C48.2251 8.68235 48.7539 9.03611 49.4811 9.03611C49.6941 9.05762 49.9094 9.03616 50.114 8.97303C50.3185 8.90989 50.5083 8.80636 50.6719 8.6686C50.8356 8.53084 50.9697 8.36166 51.0665 8.17113C51.1632 7.98061 51.2205 7.77262 51.235 7.55955Z" fill="white"/>
<path d="M54.3227 6.66677C54.3227 4.5325 55.4229 3.18044 57.1343 3.18044C57.5576 3.16099 57.9777 3.2621 58.3455 3.47194C58.7133 3.68178 59.0137 3.99169 59.2114 4.36544H59.3113V0.655762H60.648V10.0469H59.3671V8.97973H59.2613C59.0483 9.35096 58.7375 9.65701 58.3626 9.86474C57.9877 10.0725 57.5629 10.1739 57.1343 10.1582C55.4112 10.1583 54.3227 8.80618 54.3227 6.66677ZM55.7036 6.66677C55.7036 8.09939 56.3808 8.96146 57.5133 8.96146C58.64 8.96146 59.3363 8.08696 59.3363 6.67264C59.3363 5.26492 58.6327 4.37795 57.5133 4.37795C56.3881 4.37795 55.7035 5.24587 55.7035 6.66677H55.7036Z" fill="white"/>
<path d="M66.1787 6.66668C66.1361 6.2228 66.187 5.77495 66.3282 5.35184C66.4693 4.92874 66.6976 4.53973 66.9984 4.20975C67.2991 3.87978 67.6657 3.61613 68.0746 3.43572C68.4835 3.2553 68.9258 3.16211 69.3729 3.16211C69.8201 3.16211 70.2623 3.2553 70.6712 3.43572C71.0801 3.61613 71.4467 3.87978 71.7475 4.20975C72.0482 4.53973 72.2765 4.92874 72.4177 5.35184C72.5588 5.77495 72.6098 6.2228 72.5672 6.66668C72.6106 7.11101 72.5602 7.55948 72.4195 7.98327C72.2787 8.40706 72.0505 8.79678 71.7497 9.1274C71.4489 9.45803 71.082 9.72223 70.6727 9.90303C70.2633 10.0838 69.8206 10.1772 69.3729 10.1772C68.9252 10.1772 68.4825 10.0838 68.0732 9.90303C67.6638 9.72223 67.297 9.45803 66.9961 9.1274C66.6953 8.79678 66.4672 8.40706 66.3264 7.98327C66.1856 7.55948 66.1353 7.11101 66.1787 6.66668ZM71.1922 6.66668C71.1922 5.20257 70.5327 4.34637 69.3751 4.34637C68.2132 4.34637 67.5595 5.20257 67.5595 6.66669C67.5595 8.14253 68.2132 8.99213 69.3751 8.99213C70.5327 8.99211 71.1922 8.13665 71.1922 6.66668Z" fill="white"/>
<path d="M74.3607 3.2923H75.6475V4.3653H75.7474C75.9169 3.97992 76.2027 3.65686 76.565 3.44115C76.9273 3.22544 77.3481 3.12783 77.7687 3.16192C78.0983 3.13721 78.4292 3.18677 78.737 3.30691C79.0447 3.42705 79.3214 3.61471 79.5466 3.85598C79.7717 4.09724 79.9396 4.38593 80.0376 4.70066C80.1357 5.01539 80.1615 5.3481 80.1131 5.67412V10.0466H78.7764V6.00886C78.7764 4.92342 78.3034 4.38361 77.3148 4.38361C77.091 4.37322 76.8677 4.4112 76.66 4.49494C76.4523 4.57869 76.2653 4.70622 76.1117 4.8688C75.958 5.03138 75.8415 5.22515 75.77 5.43685C75.6985 5.64854 75.6738 5.87315 75.6975 6.09528V10.0467H74.3607V3.2923Z" fill="white"/>
<path d="M87.6665 1.61084V3.32324H89.134V4.44605H87.6665V7.91919C87.6665 8.62671 87.9589 8.93652 88.6243 8.93652C88.7947 8.93598 88.9649 8.92571 89.134 8.90576V10.0161C88.894 10.0589 88.6508 10.0817 88.4069 10.0842C86.9203 10.0842 86.3283 9.56273 86.3283 8.26049V4.44599H85.2531V3.32318H86.3283V1.61084H87.6665Z" fill="white"/>
<path d="M90.96 0.655762H92.285V4.37794H92.3907C92.5684 3.98896 92.8621 3.66407 93.2316 3.44755C93.6012 3.23103 94.0288 3.1334 94.456 3.16798C94.7839 3.15019 95.1116 3.20477 95.4159 3.32783C95.7202 3.4509 95.9934 3.6394 96.2163 3.87991C96.4391 4.12042 96.6059 4.407 96.7048 4.7192C96.8038 5.0314 96.8324 5.36153 96.7887 5.68604V10.0469H95.4506V6.01489C95.4506 4.93603 94.9467 4.38964 94.0022 4.38964C93.7725 4.37085 93.5414 4.40234 93.3251 4.48192C93.1088 4.5615 92.9126 4.68725 92.7502 4.85035C92.5877 5.01346 92.463 5.20999 92.3847 5.4262C92.3064 5.6424 92.2764 5.87306 92.2968 6.10204V10.0469H90.96L90.96 0.655762Z" fill="white"/>
<path d="M104.583 8.22325C104.401 8.84056 104.008 9.37454 103.471 9.73176C102.935 10.089 102.289 10.2467 101.648 10.1773C101.202 10.1891 100.758 10.1039 100.348 9.92757C99.9385 9.75128 99.572 9.48815 99.2743 9.15644C98.9766 8.82473 98.7549 8.4324 98.6245 8.00667C98.4941 7.58093 98.4582 7.132 98.5192 6.69103C98.4598 6.2487 98.4963 5.79881 98.6264 5.3718C98.7565 4.94479 98.9771 4.55064 99.2732 4.21603C99.5694 3.88142 99.9341 3.61416 100.343 3.43235C100.752 3.25054 101.195 3.15842 101.642 3.16222C103.527 3.16222 104.664 4.44622 104.664 6.56722V7.03236H99.8809V7.10706C99.86 7.35493 99.8912 7.60442 99.9726 7.83955C100.054 8.07467 100.184 8.29024 100.354 8.47242C100.523 8.6546 100.73 8.79938 100.959 8.89748C101.188 8.99557 101.435 9.04482 101.685 9.04206C102.005 9.08034 102.328 9.02292 102.615 8.87711C102.902 8.7313 103.139 8.50368 103.296 8.22321L104.583 8.22325ZM99.8809 6.0465H103.302C103.319 5.81981 103.288 5.59211 103.211 5.37803C103.135 5.16395 103.014 4.96823 102.857 4.80345C102.7 4.63866 102.51 4.50845 102.3 4.42119C102.089 4.33393 101.863 4.29154 101.635 4.29675C101.404 4.29385 101.174 4.33714 100.96 4.42405C100.746 4.51097 100.551 4.63976 100.388 4.80283C100.224 4.9659 100.095 5.15995 100.008 5.37354C99.9212 5.58714 99.8779 5.81595 99.8809 6.0465H99.8809Z" fill="white"/>
</svg>
